# xmcd
#
# Track frame offsets:
#	150
#	14672
#	34552
#	46046
#	61235
#	73917
#	87340
#	104746
#	121447
#	139095
#	153332
#	172391
#	188138
#	207649
#	223870
#	245585
#	272201
#
# Disc length: 4503 seconds
#
# Revision: 1
# Processed by: cddbd v1.5.2PL0 Copyright (c) Steve Scherf et al.
# Submitted via: audiograbber 1.83.01
#
DISCID=0d119511
DTITLE=The Boss Hoss - Shake and Shout
DYEAR=2008
DGENRE=Country
TTITLE0=Stallion Battalion
TTITLE1=Not in Herre
TTITLE2=On the sunny side of the street
TTITLE3=Yee haw
TTITLE4=Rodeo Radio
TTITLE5=I say a little prayer
TTITLE6=Hey Ya
TTITLE7=Shake and Shout
TTITLE8=Polk Salad Annie
TTITLE9=I'm on a High
TTITLE10=Omniscient Lover
TTITLE11=Ca Plane Pour Moi
TTITLE12=Toxic
TTITLE13=Word Up
TTITLE14=Mary Marry Me
TTITLE15=Jesus Built my Hotrod
TTITLE16=Data Track
EXTD=Country style covers of classic tracks
EXTT0=
EXTT1=
EXTT2=
EXTT3=
EXTT4=
EXTT5=
EXTT6=
EXTT7=
EXTT8=
EXTT9=
EXTT10=
EXTT11=
EXTT12=
EXTT13=
EXTT14=
EXTT15=
EXTT16=
PLAYORDER=
